<svg xmlns="http://www.w3.org/2000/svg" width="32" height="32" viewBox="0 0 32 32">
  <path d="M16 2C10.5 2 6 6.5 6 12c0 3.5 1.8 6.5 4.5 8.2.5.3.5.8.5 1.3v2c0 .8.2 1.5 1 2 .5.3 1.2.5 2 .5h4c.8 0 1.5-.2 2-.5.8-.5 1-1.2 1-2v-2c0-.5 0-1 .5-1.3C24.2 18.5 26 15.5 26 12c0-5.5-4.5-10-10-10z" fill="none" stroke="#111" stroke-width="1.8"/>
  <line x1="12" y1="27" x2="20" y2="27" stroke="#111" stroke-width="1.5" stroke-linecap="round"/>
  <line x1="13" y1="29" x2="19" y2="29" stroke="#111" stroke-width="1.5" stroke-linecap="round"/>
  <path d="M13 12c0-1.7 1.3-3 3-3" fill="none" stroke="#111" stroke-width="1.5" stroke-linecap="round"/>
</svg>
